Coordinates
version=1
nRows=19
nColumns=30
inDegrees=yes

Units are S.I. units (second, meters, Newtons, ...)
Angles are in degrees.

endheader
time	floatyaw	floatroll	floatpitch	floatx	floaty	floatz	pro_sup_l	deviation_l	flexion_l	cmc_flexion_l	cmc_abduction_l	mp_flexion_l	ip_flexion_l	2mcp_flexion_l	2mcp_abduction_l	2pm_flexion_l	2md_flexion_l	3mcp_flexion_l	3mcp_abduction_l	3pm_flexion_l	3md_flexion_l	4mcp_flexion_l	4mcp_abduction_l	4pm_flexion_l	4md_flexion_l	5mcp_flexion_l	5mcp_abduction_l	5pm_flexion_l	5md_flexion_l
0.005000	-160.147433	-5.066637	-73.570646	-0.053998	-0.104932	-0.085208	122.681303	36.619236	-17.890205	10.061167	42.271927	-17.226823	-49.400973	20.616741	9.609724	55.448635	45.635667	37.752255	6.718145	53.621592	44.013821	37.230410	-5.092039	57.292405	55.124038	13.012969	-13.791473	70.081802	65.676356
0.015000	-160.147433	-5.066637	-73.570646	-0.053833	-0.101844	-0.084552	122.299597	37.099170	-18.154116	9.942580	42.195186	-16.893562	-49.059229	21.693301	10.010885	54.119472	45.265323	38.757550	6.741107	52.883354	44.313653	38.490994	-5.142168	56.420782	55.839925	13.927960	-13.947255	69.436176	66.516768
0.025000	-160.147433	-5.066637	-73.570646	-0.053676	-0.098343	-0.084020	122.114942	37.648298	-18.493825	9.928314	42.078282	-16.522909	-48.561846	22.987976	10.493399	52.469037	44.788226	39.892416	6.743334	51.935650	44.469973	39.905076	-5.189765	55.242584	56.429078	15.002443	-14.099482	68.553958	67.357751
0.035000	-160.147433	-5.066637	-73.570646	-0.053546	-0.094878	-0.083599	122.039935	38.233875	-18.763785	9.974288	41.994311	-16.105775	-48.039932	24.318758	10.933595	50.798780	44.322501	41.038177	6.728340	50.816733	44.495963	41.328369	-5.223053	53.833938	56.894493	16.094894	-14.206102	67.585389	68.147511
0.045000	-160.147433	-5.066637	-73.570646	-0.053443	-0.091919	-0.083273	121.959762	38.776616	-18.835341	10.030026	42.006521	-15.654906	-47.636595	25.463194	11.207336	49.495412	43.974291	42.066646	6.706616	49.641615	44.420906	42.606067	-5.233186	52.352845	57.253107	17.036361	-14.240244	66.740179	68.818954
0.055000	-160.147433	-5.066637	-73.570646	-0.053350	-0.089796	-0.083038	121.779980	39.184853	-18.655455	10.053050	42.139120	-15.203138	-47.445720	26.253241	11.252130	48.846687	43.785544	42.877977	6.690395	48.567908	44.288606	43.619666	-5.219641	50.986800	57.540327	17.687390	-14.201328	66.204653	69.324802
0.065000	-160.147433	-5.066637	-73.570646	-0.053232	-0.088600	-0.082899	121.464425	39.392344	-18.264462	10.019432	42.364003	-14.794046	-47.472795	26.635544	11.097882	48.902156	43.720718	43.420806	6.687595	47.737388	44.144393	44.311295	-5.191606	49.886537	57.797309	17.979576	-14.114352	66.059353	69.656078
0.075000	-160.147433	-5.066637	-73.570646	-0.053052	-0.088189	-0.082874	121.041678	39.379810	-17.764456	9.925234	42.614340	-14.467051	-47.639012	26.671493	10.845667	49.466778	43.699514	43.694915	6.698673	47.223899	44.018852	44.683460	-5.163668	49.119728	58.050833	17.927505	-14.016538	66.247515	69.837140
0.085000	-160.147433	-5.066637	-73.570646	-0.052780	-0.088278	-0.082978	120.579391	39.173152	-17.262612	9.780928	42.817059	-14.243489	-47.823820	26.487138	10.610641	50.218617	43.648317	43.741310	6.717767	47.011631	43.918708	44.782041	-5.148453	48.663258	58.300316	17.609595	-13.938677	66.613017	69.904813
0.095000	-160.147433	-5.066637	-73.570646	-0.052411	-0.088563	-0.083216	120.144402	38.825181	-16.824295	9.603771	42.923843	-14.121068	-47.918759	26.208436	10.468287	50.863113	43.534546	43.625426	6.736647	47.009863	43.829179	44.673701	-5.151193	48.429740	58.519550	17.129525	-13.892289	66.979764	69.886921
0.105000	-160.147433	-5.066637	-73.570646	-0.051954	-0.088819	-0.083572	119.770838	38.393369	-16.456495	9.412010	42.924043	-14.079290	-47.863782	25.916949	10.433600	51.234411	43.368259	43.418290	6.748714	47.092859	43.723989	44.425895	-5.169165	48.309712	58.669776	16.576928	-13.869108	67.222601	69.792139
0.115000	-160.147433	-5.066637	-73.570646	-0.051435	-0.088938	-0.084014	119.450042	37.923738	-16.120778	9.222098	42.836994	-14.091647	-47.653952	25.641451	10.474920	51.309966	43.180420	43.180008	6.751052	47.145235	43.576498	44.093392	-5.195157	48.210013	58.715339	16.003743	-13.850522	67.296294	69.613879
0.125000	-160.147433	-5.066637	-73.570646	-0.050882	-0.088911	-0.084494	119.143289	37.445002	-15.762041	9.047710	42.693363	-14.137034	-47.323241	25.378320	10.544224	51.161697	42.997683	42.949493	6.744126	47.094991	43.367975	43.712725	-5.221955	48.075765	58.635507	15.422932	-13.819385	67.221990	69.343135
0.135000	-160.147433	-5.066637	-73.570646	-0.050322	-0.088782	-0.084969	118.807219	36.971225	-15.337365	8.898726	42.518210	-14.204909	-46.920844	25.120194	10.603906	50.889863	42.828815	42.742319	6.730112	46.924858	43.092446	43.303908	-5.245334	47.892555	58.430676	14.824390	-13.767749	67.052487	68.981987
0.145000	-160.147433	-5.066637	-73.570646	-0.049778	-0.088606	-0.085409	118.417278	36.508037	-14.833775	8.779573	42.323447	-14.293529	-46.492518	24.873320	10.639174	50.575438	42.666636	42.555826	6.711260	46.662357	42.758538	42.876728	-5.264659	47.673581	58.123403	14.195682	-13.698323	66.839906	68.550456
0.155000	-160.147433	-5.066637	-73.570646	-0.049265	-0.088422	-0.085802	117.977977	36.058049	-14.270671	8.688008	42.109952	-14.404513	-46.070979	24.656460	10.655413	50.262560	42.499380	42.378651	6.689154	46.356304	42.388046	42.437934	-5.281599	47.441237	57.753972	13.536110	-13.620934	66.618950	68.083200
0.165000	-160.147433	-5.066637	-73.570646	-0.048791	-0.088248	-0.086150	117.517561	35.623812	-13.689258	8.616073	41.874448	-14.538072	-45.672934	24.488271	10.666850	49.963877	42.321537	42.200811	6.664902	46.051405	42.010500	41.996254	-5.298186	47.212831	57.369723	12.859382	-13.546815	66.406428	67.617397
0.175000	-160.147433	-5.066637	-73.570646	-0.048356	-0.088091	-0.086465	117.072944	35.208764	-13.135515	8.553659	41.615539	-14.691821	-45.300050	24.375567	10.685052	49.675600	42.137339	42.020112	6.639652	45.772231	41.654485	41.563407	-5.315384	46.996048	57.010105	12.187100	-13.483604	66.210023	67.177675
0.185000	-160.147433	-5.066637	-73.570646	-0.047957	-0.087951	-0.086758	116.673833	34.816936	-12.644115	8.492967	41.335889	-14.863078	-44.943920	24.309928	10.713333	49.391887	41.956775	41.842098	6.614787	45.522163	41.338979	41.151118	-5.332773	46.793338	56.693949	11.538650	-13.433025	66.037641	66.766346
